<svg width="30" height="40" viewBox="0 0 30 40" fill="none" xmlns="http://www.w3.org/2000/svg">
<path d="M3.03783 36.6968C1.07764 33.3017 0.0975498 31.6041 0.00959662 29.9259C-0.0677692 28.4497 0.324194 26.9868 1.12931 25.7471C2.0446 24.3376 3.74217 23.3575 7.13731 21.3974L17.1805 15.5989C19.1206 14.4788 20.0906 13.9188 21.0496 13.8685C21.8932 13.8243 22.7291 14.0483 23.4375 14.5083C24.2429 15.0314 24.803 16.0014 25.9231 17.9415L26.991 19.7912C28.1111 21.7313 28.6712 22.7013 28.7215 23.6603C28.7657 24.5039 28.5417 25.3398 28.0816 26.0482C27.5586 26.8536 26.5886 27.4137 24.6485 28.5338L4.90577 39.9322L3.03783 36.6968Z" fill="url(#paint0_linear_401_2)"/>
<path d="M2.91346 20.7596C1.79336 18.8196 1.2333 17.8495 1.18304 16.8905C1.13883 16.047 1.36281 15.2111 1.82288 14.5026C2.3459 13.6972 3.31594 13.1372 5.25602 12.0171L24.9987 0.618622L26.8667 3.854C28.8269 7.24914 29.8069 8.94671 29.8949 10.625C29.9723 12.1012 29.5803 13.564 28.7752 14.8038C27.8599 16.2132 26.1623 17.1933 22.7672 19.1535L12.724 24.9519C10.7839 26.072 9.81385 26.6321 8.85485 26.6824C8.01129 26.7266 7.17539 26.5026 6.46695 26.0425C5.66157 25.5195 5.10151 24.5495 3.98141 22.6094L2.91346 20.7596Z" fill="url(#paint1_linear_401_2)"/>
<defs>
<linearGradient id="paint0_linear_401_2" x1="15.0028" y1="39.9322" x2="-10.4178" y2="32.2826" gradientUnits="userSpaceOnUse">
<stop stop-color="#D4DFF0"/>
<stop offset="1" stop-color="#D4DFF0" stop-opacity="0"/>
</linearGradient>
<linearGradient id="paint1_linear_401_2" x1="12.2095" y1="8.0025" x2="32.6572" y2="11.4172" gradientUnits="userSpaceOnUse">
<stop stop-color="#D4DFF0"/>
<stop offset="1" stop-color="#D4DFF0" stop-opacity="0"/>
</linearGradient>
</defs>
</svg>
