<svg width="59" height="34" viewBox="0 0 59 34" fill="none" xmlns="http://www.w3.org/2000/svg">
<path d="M0 24.0408C0 20.1205 0 18.1603 0.762954 16.6629C1.43407 15.3458 2.50493 14.2749 3.82207 13.6038C5.31945 12.8408 7.27963 12.8408 11.2 12.8408H39.4449C41.6851 12.8408 42.8052 12.8408 43.6609 13.2768C44.4135 13.6603 45.0254 14.2722 45.4089 15.0249C45.8449 15.8805 45.8449 17.0006 45.8449 19.2408V27.6C45.8449 29.8402 45.8449 30.9603 45.4089 31.816C45.0254 32.5686 44.4135 33.1805 43.6609 33.564C42.8052 34 41.6851 34 39.4449 34H0V24.0408Z" fill="url(#paint0_linear_15_10)"/>
<path d="M12.3433 6.4C12.3433 4.15979 12.3433 3.03969 12.7792 2.18404C13.1627 1.43139 13.7747 0.819467 14.5273 0.435974C15.3829 0 16.5031 0 18.7433 0H58.1882V9.95918C58.1882 13.8796 58.1882 15.8397 57.4252 17.3371C56.7541 18.6543 55.6832 19.7251 54.3661 20.3962C52.8687 21.1592 50.9085 21.1592 46.9882 21.1592H18.7433C16.5031 21.1592 15.3829 21.1592 14.5273 20.7232C13.7747 20.3397 13.1627 19.7278 12.7792 18.9751C12.3433 18.1195 12.3433 16.9994 12.3433 14.7592V6.4Z" fill="url(#paint1_linear_15_10)"/>
<defs>
<linearGradient id="paint0_linear_15_10" x1="23" y1="34" x2="-1.5" y2="13" gradientUnits="userSpaceOnUse">
<stop stop-color="#D4DFF0"/>
<stop offset="1" stop-color="#D4DFF0" stop-opacity="0"/>
</linearGradient>
<linearGradient id="paint1_linear_15_10" x1="34.9999" y1="-1.12855e-07" x2="57.9999" y2="21" gradientUnits="userSpaceOnUse">
<stop stop-color="#D4DFF0"/>
<stop offset="1" stop-color="#D4DFF0" stop-opacity="0"/>
</linearGradient>
</defs>
</svg>
