<svg width="25" height="24" viewBox="0 0 25 24" fill="none" xmlns="http://www.w3.org/2000/svg">
<path d="M12.5 5.25C12.9315 5.25 13.2812 5.58579 13.2812 6C13.2812 6.41421 12.9315 6.75 12.5 6.75C12.0685 6.75 11.7188 6.41421 11.7188 6C11.7188 5.58579 12.0685 5.25 12.5 5.25ZM12.5 11.25C12.9315 11.25 13.2812 11.5858 13.2812 12C13.2812 12.4142 12.9315 12.75 12.5 12.75C12.0685 12.75 11.7188 12.4142 11.7188 12C11.7188 11.5858 12.0685 11.25 12.5 11.25ZM12.5 17.25C12.9315 17.25 13.2812 17.5858 13.2812 18C13.2812 18.4142 12.9315 18.75 12.5 18.75C12.0685 18.75 11.7188 18.4142 11.7188 18C11.7188 17.5858 12.0685 17.25 12.5 17.25Z" fill="#222324" stroke="#222324" stroke-width="1.5"/>
</svg>
