<svg width="24" height="24" viewBox="0 0 24 24" fill="none" xmlns="http://www.w3.org/2000/svg">
<path fill-rule="evenodd" clip-rule="evenodd" d="M11.1987 2.58715C11.697 2.3103 12.303 2.3103 12.8013 2.58715L20.0013 6.58715C20.5251 6.87816 20.85 7.43029 20.85 8.02951V15.9704C20.85 16.5697 20.5251 17.1218 20.0013 17.4128L12.8013 21.4128C12.303 21.6896 11.697 21.6897 11.1987 21.4128L3.99871 17.4128C3.47489 17.1218 3.15002 16.5697 3.15002 15.9704V8.02951C3.15002 7.43029 3.47489 6.87816 3.99871 6.58715L11.1987 2.58715ZM12.0728 3.89839C12.0275 3.87322 11.9725 3.87322 11.9272 3.89839L4.72717 7.89839C4.67955 7.92484 4.65002 7.97504 4.65002 8.02951V15.9704C4.65002 16.0249 4.67955 16.0751 4.72717 16.1016L11.9272 20.1016C11.9725 20.1267 12.0275 20.1267 12.0728 20.1016L19.2728 16.1016C19.3205 16.0751 19.35 16.0249 19.35 15.9704V8.02951C19.35 7.97504 19.3205 7.92484 19.2728 7.89839L12.0728 3.89839Z" fill="#222324"/>
<path fill-rule="evenodd" clip-rule="evenodd" d="M7.25 12C7.25 9.37665 9.37665 7.25 12 7.25C14.6234 7.25 16.75 9.37665 16.75 12C16.75 14.6234 14.6234 16.75 12 16.75C9.37665 16.75 7.25 14.6234 7.25 12ZM12 8.75C10.2051 8.75 8.75 10.2051 8.75 12C8.75 13.7949 10.2051 15.25 12 15.25C13.7949 15.25 15.25 13.7949 15.25 12C15.25 10.2051 13.7949 8.75 12 8.75Z" fill="#222324"/>
</svg>
