<?xml version="1.0" standalone="no"?>
<!DOCTYPE svg PUBLIC "-//W3C//DTD SVG 20010904//EN"
 "http://www.w3.org/TR/2001/REC-SVG-20010904/DTD/svg10.dtd">
<svg version="1.0" xmlns="http://www.w3.org/2000/svg"
 width="261.000000pt" height="261.000000pt" viewBox="0 0 261.000000 261.000000"
 preserveAspectRatio="xMidYMid meet">
<metadata>
Created by potrace 1.14, written by Peter Selinger 2001-2017
</metadata>
<g transform="translate(0.000000,261.000000) scale(0.100000,-0.100000)"
fill="#000000" stroke="none">
<path d="M1859 2431 c-13 -10 -27 -19 -32 -19 -23 -3 -40 -21 -33 -37 5 -14 9
-15 22 -5 8 7 13 19 10 27 -5 11 -2 11 17 1 12 -7 27 -11 34 -10 18 4 26 -17
12 -34 -11 -14 -14 -12 -26 10 -8 14 -16 26 -19 26 -3 0 -2 -5 1 -10 4 -6 1
-18 -7 -27 -11 -15 -11 -16 4 -10 10 3 20 1 24 -5 5 -7 2 -8 -6 -3 -9 6 -11 4
-5 -5 6 -9 4 -11 -5 -5 -9 6 -11 4 -5 -5 6 -9 4 -11 -4 -5 -7 4 -5 -5 5 -21
11 -15 14 -25 7 -21 -8 5 -11 1 -8 -13 2 -11 -1 -23 -7 -26 -7 -5 -8 -2 -3 6
5 9 4 11 -4 6 -6 -4 -9 -12 -6 -17 4 -5 1 -9 -6 -9 -7 0 -9 -3 -6 -6 4 -4 12
-2 20 4 10 9 13 4 13 -24 0 -18 -4 -34 -8 -34 -4 0 -5 -9 -3 -20 3 -13 0 -18
-7 -14 -7 5 -8 2 -3 -7 7 -12 5 -12 -6 -1 -12 11 -12 14 1 22 8 5 13 10 10 11
-3 0 -13 2 -22 4 -22 4 -23 -4 -3 -31 8 -12 12 -24 8 -27 -3 -4 4 -5 16 -2 11
2 21 -1 21 -7 0 -5 -6 -8 -13 -5 -8 3 -14 0 -14 -7 0 -6 9 -13 19 -14 41 -4
48 -6 48 -11 0 -4 -9 -12 -21 -19 -17 -11 -20 -11 -17 4 2 9 -3 19 -11 22 -10
3 -12 0 -8 -12 5 -11 3 -15 -5 -10 -7 5 -8 3 -3 -6 6 -9 4 -11 -6 -5 -11 7
-12 6 -2 -7 11 -12 9 -17 -12 -26 -25 -12 -31 -23 -18 -36 12 -11 10 -85 -1
-80 -6 3 -2 -2 9 -12 16 -14 17 -16 3 -11 -11 4 -17 2 -15 -6 1 -7 -3 -11 -10
-10 -7 2 -10 -6 -8 -17 2 -12 0 -18 -6 -15 -5 4 -8 3 -7 -2 1 -4 -4 -19 -11
-32 -7 -13 -9 -21 -3 -18 5 4 18 0 28 -8 16 -13 17 -14 2 -9 -10 3 -18 1 -18
-5 0 -6 6 -10 13 -9 6 2 11 -3 9 -10 -1 -8 2 -11 8 -7 5 3 7 0 5 -8 -3 -7 5
-19 20 -27 14 -7 25 -17 25 -22 0 -5 -6 -6 -12 -2 -7 4 -10 3 -6 -1 5 -5 20
-10 34 -11 27 -3 27 -3 5 12 l-22 16 23 23 c16 17 25 20 31 12 6 -8 7 -6 3 6
-3 11 0 20 10 24 12 5 12 8 -6 20 -11 8 -20 22 -20 31 0 12 8 7 30 -16 17 -18
30 -30 30 -25 0 4 -14 23 -31 41 -25 26 -28 36 -19 47 7 8 21 13 32 12 12 -1
23 5 25 13 4 13 3 13 -6 0 -10 -13 -12 -13 -21 0 -14 22 -12 30 5 24 8 -4 21
-2 28 4 6 5 20 8 30 7 9 -2 17 1 17 6 0 9 -23 7 -53 -6 -17 -7 -53 12 -42 23
2 3 11 0 18 -7 11 -9 17 -8 27 4 9 10 9 15 1 15 -6 0 -11 -5 -11 -12 0 -6 -8
-4 -19 6 -11 10 -19 28 -19 39 2 25 17 49 27 43 4 -3 7 4 8 14 1 10 -5 21 -13
24 -8 3 -14 11 -14 17 0 8 5 7 17 -2 11 -10 14 -10 9 -1 -4 6 -2 12 3 12 6 0
11 5 11 11 0 8 -5 8 -15 -1 -18 -15 -20 1 -3 18 17 17 28 15 29 -5 0 -13 3
-12 10 6 12 31 -6 54 -35 45 -20 -6 -20 -5 -4 12 17 17 18 17 41 -4 13 -12 27
-22 32 -22 5 0 -1 7 -14 16 -21 15 -21 18 -7 26 9 5 16 14 16 19 0 6 -7 3 -16
-5 -8 -9 -21 -13 -27 -9 -8 5 -7 9 5 11 15 3 15 5 -4 24 -16 16 -18 22 -7 29
15 9 29 3 29 -12 0 -6 -6 -7 -12 -3 -10 5 -10 3 0 -7 11 -12 14 -12 22 1 6 10
5 17 -4 22 -7 4 -12 19 -11 33 2 14 0 23 -5 20 -4 -3 -11 2 -14 11 -9 24 -7
28 8 14 13 -10 13 -8 3 14 -8 17 -13 21 -15 11 -2 -8 -7 -13 -12 -10 -5 3 -7
12 -3 20 3 8 0 15 -6 15 -6 0 -11 5 -11 11 0 5 6 7 13 3 6 -4 3 2 -7 14 -11
12 -15 22 -10 22 5 0 1 5 -9 11 -9 6 -15 14 -12 20 9 14 0 11 -26 -10z m37
-28 c14 -23 15 -26 1 -15 -9 8 -21 11 -26 8 -5 -4 -13 -1 -17 5 -5 8 10 27 22
29 1 0 10 -12 20 -27z m18 -65 c-4 -6 -2 -13 4 -17 6 -3 12 -13 14 -21 2 -8
10 -21 18 -27 13 -11 13 -15 -4 -28 -11 -8 -25 -15 -30 -15 -6 0 -4 5 4 11 12
9 11 10 -5 4 -11 -4 -26 -10 -34 -13 -9 -3 -12 -1 -7 6 3 6 2 13 -3 16 -5 4
-8 -2 -6 -11 1 -11 10 -17 21 -16 18 1 18 1 0 -13 -14 -10 -16 -14 -5 -14 12
0 12 -2 -1 -10 -13 -8 -13 -10 -1 -10 11 0 10 -4 -4 -13 -17 -13 -16 -14 6
-11 13 1 28 3 33 3 5 1 6 4 3 8 -4 3 -1 13 5 22 10 13 10 14 -2 4 -19 -17 -35
-17 -21 0 6 8 8 17 4 20 -3 4 1 7 9 7 26 0 31 -32 10 -60 -13 -16 -28 -25 -46
-24 -19 1 -24 -2 -16 -11 5 -6 7 -15 3 -19 -4 -4 1 -4 12 0 17 7 18 5 8 -7
-10 -13 -10 -16 1 -16 8 0 13 8 11 18 -2 10 0 21 6 24 5 4 9 1 9 -6 0 -9 4 -9
15 1 15 13 35 6 35 -13 0 -8 -3 -8 -12 1 -8 8 -16 6 -30 -10 -10 -12 -18 -24
-18 -28 0 -4 -7 -7 -15 -7 -8 0 -15 4 -15 9 0 5 -4 7 -9 4 -5 -3 -8 2 -7 12 0
9 -5 16 -12 14 -9 -2 -11 2 -6 10 12 19 15 37 18 93 1 28 4 55 8 60 4 6 3 17
-2 25 -6 10 -1 23 17 42 24 25 52 30 37 6z m-13 -342 c-18 -20 -24 -86 -8
-102 8 -8 0 -24 -12 -24 -5 0 -7 11 -6 24 3 19 -1 23 -13 18 -15 -5 -16 -4 -2
13 11 14 12 17 1 11 -9 -6 -12 -5 -9 5 3 8 11 13 17 11 9 -2 9 3 0 20 -11 21
-12 21 -25 3 -7 -10 -11 -22 -8 -27 3 -5 0 -7 -7 -6 -7 2 -14 -7 -15 -19 -1
-12 2 -20 7 -18 4 3 11 0 15 -6 5 -8 3 -9 -6 -4 -9 6 -11 4 -5 -5 6 -9 4 -11
-5 -5 -8 5 -11 4 -6 -3 4 -6 14 -8 24 -5 16 6 16 5 1 -13 -9 -10 -14 -26 -12
-34 4 -13 3 -13 -6 0 -8 11 -11 12 -11 2 0 -7 -5 -10 -12 -6 -7 5 -8 3 -3 -6
6 -9 4 -11 -5 -5 -9 5 -11 4 -6 -4 6 -9 11 -9 21 -1 8 7 16 7 19 2 7 -12 -22
-24 -36 -15 -7 4 -8 1 -4 -6 5 -7 15 -10 25 -7 9 4 5 -3 -9 -14 -15 -12 -18
-18 -7 -14 10 4 17 1 17 -6 0 -6 -4 -9 -8 -6 -5 3 -9 -1 -9 -9 0 -11 4 -12 13
-4 7 6 14 6 18 1 7 -12 -22 -25 -35 -16 -5 3 -7 9 -4 14 3 5 -5 16 -17 24 -20
15 -21 16 -5 34 9 10 14 21 11 25 -3 3 6 13 20 22 19 12 23 22 17 34 -4 9 -7
31 -6 49 0 18 -3 36 -7 38 -15 9 -8 21 18 32 14 7 22 17 19 22 -3 6 -1 10 5
10 7 0 10 -7 7 -14 -4 -10 -1 -13 8 -10 8 3 14 9 13 12 -2 17 3 23 12 17 8 -5
7 -11 -1 -21 -8 -10 -8 -14 0 -14 11 0 15 13 11 39 -1 13 1 13 14 1 15 -12 15
-15 -3 -34z m-50 -39 c-10 -9 -11 -8 -5 6 3 10 9 15 12 12 3 -3 0 -11 -7 -18z
m-6 -37 c-3 -5 3 -13 12 -19 10 -5 15 -13 11 -17 -4 -4 -16 4 -27 17 -24 29
-26 40 -6 33 8 -4 13 -10 10 -14z m48 -60 c6 0 0 -11 -12 -24 -14 -15 -20 -30
-15 -37 5 -9 2 -10 -11 -5 -14 5 -12 -1 8 -28 24 -31 26 -46 5 -46 -4 0 -7 3
-7 8 3 20 -2 32 -13 26 -6 -4 -8 -3 -4 4 3 6 2 13 -3 16 -12 8 -8 -23 5 -32
18 -13 14 -41 -8 -56 -16 -12 -25 -13 -35 -4 -18 15 1 27 31 21 17 -4 18 -3 6
6 -8 6 -11 11 -7 11 5 0 1 10 -7 22 -12 17 -13 25 -4 36 6 7 12 26 13 40 2 37
14 55 32 48 8 -3 20 -6 26 -6z"/>
<path d="M1883 2327 c-23 -25 -17 -55 8 -43 8 4 6 1 -4 -7 -16 -13 -16 -15 -2
-21 9 -3 13 -2 10 3 -3 5 -1 12 5 16 5 3 10 1 10 -6 0 -7 3 -9 7 -6 3 4 11 3
18 -1 6 -4 3 0 -7 10 -21 19 -24 33 -5 22 6 -4 4 2 -6 14 -11 11 -16 26 -12
31 10 17 2 12 -22 -12z m16 -28 c-7 -4 -17 -5 -22 -2 -5 3 -3 9 4 14 7 4 17 5
22 2 5 -3 3 -9 -4 -14z"/>
<path d="M1815 1977 c-12 -9 -14 -16 -7 -21 6 -3 16 3 22 14 13 24 10 25 -15
7z"/>
<path d="M1766 1781 c-4 -5 -2 -12 3 -15 5 -4 12 -2 15 3 4 5 2 12 -3 15 -5 4
-12 2 -15 -3z"/>
<path d="M1860 1849 c0 -5 -5 -7 -12 -3 -7 4 -8 3 -4 -4 4 -6 13 -9 21 -6 8 4
12 10 9 15 -7 12 -14 11 -14 -2z"/>
<path d="M1763 2367 c3 -8 1 -20 -5 -28 -8 -11 -9 -11 -4 3 3 10 1 20 -4 23
-6 4 -10 1 -10 -4 0 -6 -3 -10 -7 -8 -9 2 -13 -6 -13 -25 0 -9 4 -8 10 2 5 8
10 11 10 5 0 -13 -20 -43 -20 -30 0 6 -4 16 -9 24 -7 11 -26 4 -92 -34 -104
-58 -145 -83 -184 -106 -16 -10 -46 -26 -65 -36 -41 -20 -511 -291 -688 -395
-138 -83 -175 -126 -186 -217 -7 -61 13 -114 93 -254 39 -69 75 -135 81 -148
5 -13 17 -34 26 -47 16 -21 16 -22 0 -16 -12 5 -15 2 -10 -10 4 -9 9 -14 12
-11 10 10 41 -27 35 -43 -4 -10 -2 -13 5 -8 7 4 15 1 18 -8 3 -9 11 -13 16
-10 6 4 6 -1 -1 -13 -14 -26 -2 -38 16 -15 12 16 13 16 6 -2 -4 -12 -3 -17 4
-13 5 4 18 1 28 -6 16 -13 16 -14 0 -30 -9 -10 -21 -15 -26 -12 -5 4 -9 1 -9
-4 0 -6 -5 -11 -11 -11 -8 0 -8 4 0 13 8 11 5 14 -18 14 -27 0 -28 -2 -27 -46
1 -32 -3 -45 -12 -43 -6 1 -12 -2 -12 -8 0 -5 4 -10 8 -10 5 0 14 -12 21 -27
10 -22 14 -24 23 -12 8 11 9 11 4 -3 -3 -10 2 -22 12 -27 9 -6 12 -11 5 -11
-6 0 -15 5 -18 10 -11 18 -36 -10 -30 -31 4 -11 2 -19 -5 -19 -6 0 -9 4 -5 9
3 5 1 12 -5 16 -5 3 -10 -1 -10 -9 0 -9 -5 -16 -10 -16 -6 0 -9 5 -8 11 2 6
-2 13 -8 16 -14 5 -13 -29 1 -39 6 -4 19 -5 30 -2 l20 6 -20 -17 c-17 -14 -17
-16 -2 -11 9 3 17 1 17 -3 0 -10 -30 -25 -46 -23 -6 1 -11 -5 -11 -13 0 -9 6
-14 14 -11 7 3 13 1 13 -4 0 -6 -7 -10 -15 -10 -8 0 -15 -5 -15 -10 0 -6 5 -9
11 -8 6 2 14 -4 16 -12 4 -13 3 -13 -6 0 -10 14 -12 13 -15 -19 -2 -20 -21
-24 -37 -9 -12 12 -17 11 -31 -4 -17 -17 -17 -18 5 -17 12 0 39 -2 60 -4 32
-4 36 -3 26 9 -8 10 -8 14 0 14 6 0 11 -4 11 -9 0 -5 9 -11 21 -14 12 -3 18
-10 15 -16 -3 -5 1 -12 9 -14 11 -3 10 -4 -2 -3 -10 1 -17 7 -16 13 2 7 -14
11 -40 10 -32 -2 -42 -6 -42 -19 0 -9 -4 -20 -8 -24 -18 -18 -5 -25 15 -8 13
12 18 13 13 4 -5 -8 -21 -26 -37 -39 -15 -13 -25 -27 -22 -32 3 -5 0 -9 -6 -9
-7 0 -9 8 -5 20 3 11 2 20 -3 20 -5 0 -14 12 -20 26 -7 14 -8 23 -3 20 5 -3
15 2 22 11 12 15 12 16 -4 10 -25 -9 -60 11 -53 29 4 10 2 12 -6 8 -7 -4 -8
-3 -4 4 5 8 1 10 -9 5 -12 -4 -13 -8 -5 -13 6 -4 13 -16 14 -26 2 -12 10 -18
22 -16 14 3 16 1 8 -8 -9 -9 -3 -27 24 -73 19 -34 47 -83 62 -109 19 -34 29
-45 37 -37 8 8 13 7 18 -2 5 -8 4 -10 -3 -5 -16 10 -15 -26 1 -48 14 -19 47
-13 47 10 0 8 6 11 17 7 13 -5 15 -2 10 18 -4 19 -3 21 5 8 10 -14 17 -12 64
14 30 16 52 32 50 36 -3 4 1 8 9 8 18 0 105 46 105 55 0 5 5 8 10 8 9 0 118
58 170 90 8 5 176 102 374 215 488 281 492 283 522 354 37 88 21 159 -69 313
-68 116 -102 181 -99 191 1 4 -3 7 -9 7 -5 0 -7 5 -4 10 3 6 -1 13 -9 16 -9 3
-13 10 -10 15 3 5 0 9 -7 9 -7 0 -10 3 -6 6 3 4 -3 14 -14 23 l-21 17 21 1
c13 1 19 -2 15 -9 -4 -7 -2 -8 4 -4 7 4 12 2 12 -3 0 -6 5 -11 10 -11 6 0 5 8
-2 20 -7 11 -20 20 -28 19 -8 -1 -22 -1 -32 0 -19 1 -80 80 -72 93 3 5 0 7 -8
6 -7 -2 -12 4 -12 13 1 13 -7 16 -36 14 -45 -3 -61 -11 -54 -29 3 -7 -3 -19
-13 -27 -16 -13 -17 -12 -4 4 8 9 10 21 6 25 -4 4 -10 1 -12 -5 -3 -7 -9 -13
-15 -13 -6 0 -5 7 3 16 12 15 11 16 -6 11 -11 -4 -27 -2 -35 4 -12 8 -11 9 6
4 14 -3 30 2 45 16 18 15 20 19 6 15 -11 -3 -16 -2 -12 4 3 6 1 10 -4 10 -6 0
-11 5 -11 11 0 6 15 1 33 -13 17 -13 39 -23 47 -22 37 3 41 5 36 13 -3 5 1 12
9 15 8 3 15 9 14 13 -1 4 0 11 1 16 1 4 3 13 4 20 1 6 7 11 13 10 7 -2 10 6 8
17 -2 11 0 22 4 24 9 6 8 57 -3 74 -4 7 -3 18 3 25 8 10 9 26 2 55 -1 5 -31
-26 -31 -32 0 -3 3 -5 8 -3 4 1 7 -2 7 -8 0 -5 -3 -9 -7 -8 -11 4 -5 -21 7
-29 6 -5 5 -8 -4 -8 -11 0 -11 -3 0 -16 15 -19 21 -47 8 -38 -5 3 -7 9 -4 14
3 5 -5 16 -17 24 -28 20 -35 20 -35 1 0 -8 7 -14 16 -13 10 2 16 -4 16 -17 1
-11 6 -19 11 -18 6 1 11 -5 11 -13 0 -10 -4 -11 -11 -4 -16 16 -30 12 -16 -5
17 -21 7 -29 -18 -16 -29 15 -31 14 -28 -13 2 -15 -1 -23 -8 -20 -7 3 -12 -5
-13 -17 -2 -17 1 -18 13 -8 19 16 37 0 24 -21 -8 -12 -12 -13 -19 -2 -4 8 -11
13 -15 13 -12 -2 -46 24 -46 35 0 6 9 19 20 29 18 17 22 46 7 61 -4 4 -7 14
-7 23 1 9 8 3 17 -14 10 -16 16 -36 15 -42 -2 -8 3 -10 13 -7 14 6 14 9 0 30
-13 20 -13 23 0 18 11 -4 13 0 9 18 -3 12 -6 28 -6 35 -1 7 -8 15 -16 18 -8 3
-12 12 -8 20 3 8 1 17 -4 20 -6 4 -10 -2 -10 -11 0 -10 -3 -15 -6 -11 -4 3 -4
14 0 23 5 13 9 14 21 4 21 -17 63 -19 76 -4 10 12 5 13 -24 10 -46 -6 -55 7
-24 38 14 14 22 28 19 31 -4 3 2 3 13 -1 18 -7 18 -6 7 9 -8 8 -20 13 -28 10
-8 -3 -14 -1 -14 4 0 15 38 13 44 -3 3 -8 11 -14 18 -14 9 0 9 3 1 11 -6 6 -9
17 -7 24 4 8 -5 12 -25 11 -17 0 -30 3 -30 8 1 8 -20 26 -31 26 -3 0 -6 -9 -7
-20 -1 -11 2 -18 8 -15 14 10 22 -22 10 -42 -9 -15 -10 -13 -5 10 5 20 3 27
-7 25 -15 -3 -22 39 -8 48 13 7 51 -15 44 -27 -8 -11 5 -12 24 0 11 7 10 11
-4 19 -12 6 -16 17 -12 31 4 17 -1 25 -19 33 -13 6 -24 15 -24 20 0 5 14 0 30
-12 31 -22 38 -17 16 12 -7 10 -16 15 -20 11 -4 -4 -4 1 0 11 5 13 4 17 -4 12
-6 -3 -13 -3 -16 2 -3 5 2 9 10 9 18 0 58 -63 49 -77 -3 -5 -2 -10 4 -10 5 0
12 4 16 10 3 5 11 7 19 4 7 -3 13 2 13 11 0 10 -6 13 -17 10 -20 -6 -33 16
-24 40 5 12 10 13 19 5 11 -9 13 -4 10 26 -2 34 -1 36 11 19 8 -10 14 -14 14
-9 0 12 -21 34 -33 34 -5 0 -7 -6 -4 -13z m-93 -71 c0 -3 -4 -8 -10 -11 -5 -3
-10 -1 -10 4 0 6 5 11 10 11 6 0 10 -2 10 -4z m-66 -28 c-5 -7 -2 -9 8 -6 8 4
15 0 15 -7 0 -10 -5 -11 -19 -4 -16 9 -17 29 -2 29 3 0 2 -5 -2 -12z m60 -13
c3 -8 1 -15 -4 -15 -6 0 -10 7 -10 15 0 8 2 15 4 15 2 0 6 -7 10 -15z m-18
-42 c-2 -9 -9 -19 -17 -21 -11 -3 -11 -1 1 7 8 6 11 11 7 11 -5 0 -5 5 -2 10
9 15 14 12 11 -7z m-37 -36 c-2 -1 -13 -9 -24 -17 -19 -14 -19 -14 -6 3 7 9
18 17 24 17 6 0 8 -1 6 -3z m-105 -26 c3 -5 -2 -15 -12 -22 -15 -12 -16 -12
-5 2 7 9 10 19 6 22 -3 4 -4 7 0 7 3 0 8 -4 11 -9z m150 -31 c-6 -5 -24 21
-24 34 0 6 6 1 14 -10 8 -10 12 -21 10 -24z m-70 4 c3 -8 2 -12 -4 -9 -6 3
-10 10 -10 16 0 14 7 11 14 -7z m28 -2 c-3 -10 -1 -13 6 -8 7 4 12 5 12 2 0
-15 -20 -14 -29 2 -7 14 -6 19 4 19 7 0 11 -7 7 -15z m88 -27 c-7 -8 -17 -15
-22 -15 -11 0 14 29 26 30 5 0 3 -7 -4 -15z m-130 -6 c0 -4 -9 -7 -19 -6 -11
0 -18 4 -16 7 6 9 35 8 35 -1z m87 5 c-3 -3 -12 -4 -19 -1 -8 3 -5 6 6 6 11 1
17 -2 13 -5z m11 -35 c3 -11 2 -12 -6 -1 -5 8 -12 13 -16 12 -4 -1 -12 1 -19
4 -6 2 -1 3 12 2 14 -2 27 -9 29 -17z m-138 7 c0 -2 -8 -10 -17 -17 -16 -13
-17 -12 -4 4 13 16 21 21 21 13z m53 -11 c-3 -9 -8 -14 -10 -11 -3 3 -2 9 2
15 9 16 15 13 8 -4z m-103 -1 c0 -8 -19 -13 -24 -6 -3 5 1 9 9 9 8 0 15 -2 15
-3z m160 -4 c8 -5 11 -10 5 -10 -5 0 -17 5 -25 10 -8 5 -10 10 -5 10 6 0 17
-5 25 -10z m-38 -32 c-9 -9 -15 -9 -24 1 -11 10 -9 11 6 5 16 -6 18 -4 12 12
-6 15 -5 17 5 7 10 -10 10 -16 1 -25z m-68 14 c3 -5 -1 -9 -9 -9 -8 0 -12 4
-9 9 3 4 7 8 9 8 2 0 6 -4 9 -8z m96 -17 c0 -8 -4 -15 -10 -15 -5 0 -7 7 -4
15 4 8 8 15 10 15 2 0 4 -7 4 -15z m-165 -14 c3 -5 2 -12 -3 -15 -5 -3 -9 1
-9 9 0 17 3 19 12 6z m201 -27 c19 -15 19 -15 -1 -6 -11 5 -27 12 -35 15 -13
5 -13 6 1 6 8 1 24 -6 35 -15z m-99 0 c-2 -3 -17 -7 -33 -10 -17 -2 -24 -1
-17 4 13 8 58 14 50 6z m47 -44 c3 0 5 6 4 12 -2 7 8 14 22 15 24 2 24 2 2 -5
-13 -4 -23 -11 -22 -17 3 -20 -19 -15 -30 7 -10 21 -10 21 3 6 8 -10 17 -18
21 -18z m76 10 c0 -5 -4 -10 -10 -10 -5 0 -10 5 -10 10 0 6 5 10 10 10 6 0 10
-4 10 -10z m-120 -29 c0 -6 -4 -12 -8 -15 -5 -3 -9 1 -9 9 0 8 4 15 9 15 4 0
8 -4 8 -9z m74 -7 c3 -8 2 -12 -4 -9 -6 3 -10 10 -10 16 0 14 7 11 14 -7z
m-22 -24 c-2 -8 3 -10 13 -7 8 4 15 2 15 -4 0 -6 -8 -9 -17 -7 -10 2 -17 10
-15 16 3 17 -9 15 -23 -5 -9 -13 -14 -13 -20 -3 -5 8 -4 11 2 7 6 -4 14 0 17
9 7 18 32 13 28 -6z m-95 -5 c0 -8 -4 -12 -9 -9 -5 3 -6 10 -3 15 9 13 12 11
12 -6z m-57 -5 c0 -5 -2 -10 -4 -10 -3 0 -8 5 -11 10 -3 6 -1 10 4 10 6 0 11
-4 11 -10z m104 -18 c3 -5 -1 -9 -9 -9 -8 0 -12 4 -9 9 3 4 7 8 9 8 2 0 6 -4
9 -8z m56 -7 c0 -2 -9 -3 -19 -2 -11 0 -18 5 -15 9 4 6 34 0 34 -7z m110 -15
c12 -7 12 -10 1 -10 -8 0 -11 -6 -7 -17 5 -15 4 -15 -9 1 -25 33 -17 47 15 26z
m-170 -7 c0 -1 -8 -7 -18 -12 -13 -7 -19 -6 -19 2 0 7 9 13 19 13 10 0 18 -1
18 -3z m35 -12 c-3 -6 -11 -11 -16 -11 -5 0 -4 6 3 14 14 16 24 13 13 -3z
m-35 -46 c0 -8 -4 -15 -8 -15 -5 0 -9 7 -9 15 0 8 4 15 9 15 4 0 8 -7 8 -15z
m40 -5 c0 -5 -4 -10 -10 -10 -5 0 -10 5 -10 10 0 6 5 10 10 10 6 0 10 -4 10
-10z m-68 -24 c3 3 8 1 11 -3 3 -5 -5 -9 -18 -9 -14 0 -22 2 -20 5 3 2 -1 11
-7 20 -10 12 -7 12 8 -2 11 -9 23 -14 26 -11z m177 -13 c-12 -15 -12 -16 3
-10 11 4 25 -5 43 -29 23 -31 24 -34 6 -22 -12 7 -21 19 -21 26 0 7 -5 10 -10
7 -6 -4 -7 -11 -4 -17 4 -7 2 -8 -5 -4 -6 4 -9 12 -6 17 4 5 1 9 -4 9 -6 0
-11 -6 -12 -12 0 -10 -2 -10 -6 0 -2 6 -9 12 -14 12 -6 0 -8 -4 -5 -8 3 -5 -1
-9 -8 -9 -8 0 -12 6 -9 14 3 7 10 13 17 13 6 0 4 5 -4 11 -12 8 -10 9 7 4 12
-3 24 -1 28 5 3 5 9 10 12 10 3 0 -1 -8 -8 -17z m-224 -13 c3 -6 -1 -7 -9 -4
-18 7 -21 14 -7 14 6 0 13 -4 16 -10z m91 -2 c4 -7 3 -8 -4 -4 -7 4 -12 2 -12
-5 0 -7 -3 -10 -6 -6 -6 5 3 27 11 27 2 0 7 -5 11 -12z m27 -25 c-7 -2 -19 -2
-25 0 -7 3 -2 5 12 5 14 0 19 -2 13 -5z m-52 -26 c-10 -9 -11 -8 -5 6 3 10 9
15 12 12 3 -3 0 -11 -7 -18z m-58 -2 c-3 -9 -8 -14 -10 -11 -3 3 -2 9 2 15 9
16 15 13 8 -4z m-98 -24 c3 -5 2 -12 -3 -15 -5 -3 -9 1 -9 9 0 17 3 19 12 6z
m58 -16 c-3 -9 -8 -14 -10 -11 -3 3 -2 9 2 15 9 16 15 13 8 -4z m-357 -650
c-1 -8 -5 -17 -8 -21 -5 -4 -4 16 1 34 3 9 9 -1 7 -13z m-225 -53 c-7 -2 -18
1 -23 6 -8 8 -4 9 13 5 13 -4 18 -8 10 -11z m-31 -17 c0 -8 -4 -15 -10 -15 -5
0 -7 7 -4 15 4 8 8 15 10 15 2 0 4 -7 4 -15z m159 -12 c2 -1 -5 -1 -16 0 -11
0 -20 7 -20 14 0 10 4 10 16 1 9 -7 18 -13 20 -15z m-221 -19 c19 11 14 1 -13
-28 -14 -15 -25 -32 -25 -38 0 -7 9 -2 20 10 26 27 36 28 50 1 10 -17 8 -21
-9 -26 -12 -3 -21 -10 -21 -16 0 -6 -2 -8 -5 -5 -11 10 7 37 21 31 10 -4 12 0
8 11 -8 22 -20 20 -38 -6 -19 -27 -44 -12 -29 18 5 11 8 32 7 48 -3 25 -2 27
10 11 7 -10 18 -15 24 -11z m38 -13 c-4 -6 -13 -11 -19 -10 -9 0 -9 2 0 5 7 3
9 13 6 22 -5 13 -3 14 7 5 7 -6 9 -16 6 -22z m64 19 c-8 -5 -17 -7 -21 -4 -7
4 -23 -26 -21 -38 1 -5 -2 -8 -8 -8 -27 0 14 55 42 57 17 2 19 0 8 -7z m50 4
c0 -8 -19 -13 -24 -6 -3 5 1 9 9 9 8 0 15 -2 15 -3z m-30 -25 c0 -5 -5 -7 -12
-3 -8 5 -9 1 -4 -12 5 -14 4 -16 -5 -7 -6 6 -8 16 -5 22 9 14 26 14 26 0z
m120 5 c0 -8 -19 -13 -24 -6 -3 5 1 9 9 9 8 0 15 -2 15 -3z m33 -59 c-7 -21
-12 -19 -10 4 0 11 5 18 9 15 4 -3 5 -11 1 -19z m-129 -4 c4 -5 -3 -7 -14 -4
-23 6 -26 13 -6 13 8 0 17 -4 20 -9z m-109 -62 c0 -14 -5 -23 -12 -21 -7 1
-13 -5 -13 -13 0 -8 -3 -15 -7 -15 -12 1 -43 26 -43 35 0 5 8 0 19 -9 17 -15
19 -15 25 -1 3 9 10 14 15 10 6 -3 9 4 8 15 -1 15 -6 19 -22 14 -16 -4 -17 -3
-5 5 22 15 35 8 35 -20z m41 19 c5 -7 3 -8 -6 -3 -9 5 -10 1 -6 -16 6 -20 5
-21 -4 -6 -6 9 -8 22 -5 27 8 13 12 13 21 -2z m201 -10 c2 -17 0 -19 -7 -8 -5
8 -6 18 -4 22 8 12 10 10 11 -14z m-96 -5 c13 -16 12 -17 -3 -4 -10 7 -18 15
-18 17 0 8 8 3 21 -13z m-90 -20 c-12 -20 -14 -14 -5 12 4 9 9 14 11 11 3 -2
0 -13 -6 -23z m146 -8 c0 -8 -4 -12 -9 -9 -5 3 -6 10 -3 15 9 13 12 11 12 -6z
m-197 -20 c-10 -12 -10 -15 0 -15 8 0 11 -3 7 -6 -3 -3 -11 -3 -17 1 -8 5 -8
11 1 21 6 8 14 14 16 14 3 0 0 -7 -7 -15z m-60 -16 c0 -5 -4 -7 -10 -4 -5 3
-10 -2 -10 -11 0 -10 -3 -15 -6 -11 -9 9 3 37 16 37 5 0 10 -5 10 -11z m260 1
c0 -5 -5 -10 -11 -10 -5 0 -7 5 -4 10 3 6 8 10 11 10 2 0 4 -4 4 -10z m-65 -9
c3 -5 2 -12 -3 -15 -5 -3 -9 1 -9 9 0 17 3 19 12 6z m-168 -8 c-9 -2 -14 -9
-11 -14 3 -6 -3 -13 -15 -16 -26 -7 -27 -19 -2 -26 15 -4 18 -11 14 -28 -6
-24 -6 -24 16 -5 17 16 21 17 16 4 -8 -20 -32 -31 -41 -17 -3 5 -3 16 -1 24 4
8 -4 15 -19 19 -31 8 -31 24 1 32 13 3 24 9 23 13 -2 16 3 21 20 20 16 -1 16
-2 -1 -6z m66 -7 c4 -10 0 -12 -15 -8 -15 4 -17 7 -6 13 17 11 15 11 21 -5z
m-37 -18 c4 -6 3 -8 -3 -5 -6 4 -14 0 -17 -9 -4 -9 -9 -14 -13 -11 -3 4 0 13
7 22 15 18 17 18 26 3z m141 -13 c0 -8 -4 -12 -9 -9 -5 3 -6 10 -3 15 9 13 12
11 12 -6z m-106 -18 c-10 -9 -11 -8 -5 6 3 10 9 15 12 12 3 -3 0 -11 -7 -18z
m-135 -20 c4 -33 5 -34 15 -12 l9 20 -3 -20 c-2 -11 -9 -19 -15 -17 -15 3 -16
-14 -2 -21 6 -3 5 -4 -2 -3 -8 2 -14 20 -14 45 -2 43 7 49 12 8z m129 -7 c10
-11 16 -20 13 -20 -3 0 -13 9 -23 20 -10 11 -16 20 -13 20 3 0 13 -9 23 -20z
m52 7 c0 -8 -6 -14 -14 -14 -9 0 -10 4 -2 14 6 7 12 13 14 13 1 0 2 -6 2 -13z
m107 -5 c3 -5 -1 -9 -9 -9 -8 0 -12 4 -9 9 3 4 7 8 9 8 2 0 6 -4 9 -8z m-64
-16 c0 -3 -4 -8 -10 -11 -5 -3 -10 -1 -10 4 0 6 5 11 10 11 6 0 10 -2 10 -4z
m-170 -36 c6 -11 9 -20 8 -20 -2 0 -11 9 -21 20 -9 11 -13 20 -7 20 5 0 14 -9
20 -20z m205 10 c3 -5 1 -10 -4 -10 -6 0 -11 5 -11 10 0 6 2 10 4 10 3 0 8 -4
11 -10z m-201 -49 c-5 -6 -34 20 -34 30 0 5 8 1 18 -8 10 -10 17 -20 16 -22z
m64 22 c-12 -15 -22 -18 -14 -4 4 5 0 11 -6 14 -7 3 -3 4 9 4 17 -1 19 -4 11
-14z m32 -7 c0 -2 -8 -10 -17 -17 -16 -13 -17 -12 -4 4 13 16 21 21 21 13z
m41 -19 c-10 -9 -11 -8 -5 6 3 10 9 15 12 12 3 -3 0 -11 -7 -18z m129 13 c0
-5 -5 -10 -11 -10 -5 0 -7 5 -4 10 3 6 8 10 11 10 2 0 4 -4 4 -10z m-341 -26
c5 4 13 1 17 -5 4 -7 3 -9 -3 -6 -6 4 -14 0 -17 -9 -5 -12 -1 -14 17 -9 19 5
20 4 4 -5 -19 -12 -41 -4 -32 11 4 5 -1 12 -9 15 -9 3 -16 11 -16 16 0 6 6 5
15 -2 8 -6 19 -9 24 -6z m167 -11 c-2 -3 -6 -3 -9 -1 -3 2 -15 -6 -28 -17
l-24 -20 18 21 c9 11 24 21 32 21 8 0 13 -2 11 -4z m-101 -21 c-3 -3 -11 0
-18 7 -9 10 -8 11 6 5 10 -3 15 -9 12 -12z m-110 -47 c-14 -15 -29 -25 -32
-22 -3 3 8 17 23 31 37 32 44 25 9 -9z m85 20 c0 -8 -2 -15 -4 -15 -2 0 -6 7
-10 15 -3 8 -1 15 4 15 6 0 10 -7 10 -15z m150 11 c0 -2 -8 -10 -17 -17 -16
-13 -17 -12 -4 4 13 16 21 21 21 13z m-170 -26 c0 -5 -7 -7 -15 -4 -8 4 -15 8
-15 10 0 2 7 4 15 4 8 0 15 -4 15 -10z m117 -4 c-1 -6 4 -10 11 -8 14 2 16 -4
3 -12 -4 -3 -16 3 -25 13 -13 14 -14 18 -2 18 8 0 14 -5 13 -11z m-160 -28
c-3 -7 -5 -2 -5 12 0 14 2 19 5 13 2 -7 2 -19 0 -25z m31 -3 c-3 -3 -9 2 -12
12 -6 14 -5 15 5 6 7 -7 10 -15 7 -18z m47 7 c-3 -3 -11 0 -18 7 -9 10 -8 11
6 5 10 -3 15 -9 12 -12z m180 -1 c3 -5 2 -12 -3 -15 -5 -3 -9 1 -9 9 0 17 3
19 12 6z m-275 -10 c0 -15 -31 -22 -48 -11 -14 9 -13 10 5 5 12 -3 24 -1 28 5
8 12 15 13 15 1z m125 -19 c-3 -3 -11 0 -18 7 -9 10 -8 11 6 5 10 -3 15 -9 12
-12z m-63 1 c-6 -3 -9 -10 -5 -16 4 -7 -2 -5 -13 3 -10 8 -20 15 -22 16 -2 1
10 1 25 1 15 0 22 -2 15 -4z m-37 -16 c14 -11 15 -16 5 -22 -9 -6 -11 -4 -5 5
6 10 4 12 -9 7 -9 -4 -15 -3 -11 2 3 5 -1 12 -7 14 -7 3 -8 6 -2 6 5 1 18 -5
29 -12z m-32 -17 c9 -11 13 -20 9 -20 -4 0 -15 9 -25 20 -9 11 -13 20 -9 20 4
0 15 -9 25 -20z m152 11 c-9 -8 -36 -10 -30 -2 2 4 11 8 20 8 8 0 13 -3 10 -6z
m-65 -21 c0 -5 -4 -10 -10 -10 -5 0 -10 5 -10 10 0 6 5 10 10 10 6 0 10 -4 10
-10z m-29 -28 c-7 -2 -18 1 -23 6 -8 8 -4 9 13 5 13 -4 18 -8 10 -11z m89 6
c0 -4 -4 -8 -9 -8 -6 0 -12 4 -15 8 -3 5 1 9 9 9 8 0 15 -4 15 -9z m-66 -27
c4 -5 -3 -7 -14 -4 -23 6 -26 13 -6 13 8 0 17 -4 20 -9z m-9 -51 c-3 -5 -12
-10 -18 -10 -7 0 -6 4 3 10 19 12 23 12 15 0z"/>
<path d="M1815 2356 c-10 -14 -21 -23 -26 -20 -5 3 -9 0 -9 -5 0 -6 7 -11 15
-11 8 0 15 5 15 12 0 6 2 9 5 6 8 -8 -6 -39 -15 -33 -5 3 -12 0 -16 -6 -4 -7
3 -20 17 -31 20 -15 21 -17 4 -12 -14 4 -16 3 -7 -4 11 -7 10 -10 -3 -16 -9
-3 -21 -4 -26 0 -12 7 -23 -21 -14 -36 4 -6 14 -2 25 12 l19 23 -4 -22 c-2
-13 -9 -31 -15 -40 -10 -16 -11 -16 -6 -1 3 11 1 15 -8 12 -7 -3 -18 8 -26 23
-8 17 -14 23 -17 15 -3 -7 2 -21 11 -31 9 -10 13 -21 9 -25 -5 -4 -1 -6 7 -4
9 2 15 -4 15 -15 0 -10 7 -22 15 -27 12 -8 11 -11 -7 -16 -13 -4 -23 -11 -23
-16 0 -5 -4 -7 -9 -3 -11 6 -54 -36 -45 -44 3 -3 15 5 26 19 l21 25 -7 -25
c-3 -14 -3 -19 0 -12 5 10 9 10 20 1 8 -6 14 -8 14 -4 0 4 7 2 15 -5 19 -16
36 -4 31 23 -3 12 -5 23 -7 25 -1 1 -2 5 -3 10 -1 4 -8 18 -15 31 -9 17 -10
26 -2 34 6 6 11 7 11 2 0 -5 7 0 15 11 15 19 15 19 8 -1 -3 -11 -3 -17 1 -14
4 4 8 16 11 27 2 14 -1 19 -10 16 -21 -9 -25 11 -7 37 19 28 24 49 14 64 -9
13 -9 37 2 53 16 26 -3 23 -19 -2z m15 -66 c0 -5 -5 -10 -11 -10 -5 0 -7 5 -4
10 3 6 8 10 11 10 2 0 4 -4 4 -10z m-36 -191 c-3 -6 0 -15 7 -20 13 -8 6 -11
-17 -8 -4 0 -10 -5 -14 -11 -5 -9 -9 -9 -14 -1 -4 6 -2 11 4 11 6 0 8 5 4 12
-4 6 -3 8 3 5 6 -4 13 0 17 8 3 8 8 15 11 15 4 0 3 -5 -1 -11z m16 -49 c0 -5
-5 -10 -11 -10 -5 0 -7 5 -4 10 3 6 8 10 11 10 2 0 4 -4 4 -10z"/>
<path d="M1870 2369 c0 -5 5 -7 10 -4 6 3 10 8 10 11 0 2 -4 4 -10 4 -5 0 -10
-5 -10 -11z"/>
<path d="M1750 2291 c0 -6 5 -13 10 -16 6 -3 10 1 10 9 0 9 -4 16 -10 16 -5 0
-10 -4 -10 -9z"/>
<path d="M1995 2210 c-3 -5 -2 -10 4 -10 5 0 13 5 16 10 3 6 2 10 -4 10 -5 0
-13 -4 -16 -10z"/>
<path d="M2006 2175 c-9 -13 -16 -28 -16 -32 0 -4 8 4 18 20 10 15 22 24 27
20 4 -5 5 -2 1 5 -10 16 -11 16 -30 -13z"/>
<path d="M2015 2149 c-4 -6 -4 -13 -1 -16 3 -4 6 -1 6 6 0 7 5 9 12 5 7 -4 8
-3 4 4 -9 15 -13 15 -21 1z"/>
<path d="M2017 2108 c2 -5 10 -8 18 -8 8 0 16 3 18 8 3 4 -5 7 -18 7 -13 0
-21 -3 -18 -7z"/>
<path d="M1980 2091 c-10 -20 3 -41 17 -27 4 3 1 6 -5 6 -6 0 -9 7 -5 16 5 13
7 13 14 2 6 -9 9 -9 9 -1 0 21 -19 24 -30 4z"/>
<path d="M2074 2071 c0 -16 4 -27 8 -25 4 2 5 14 3 26 -7 32 -13 32 -11 -1z"/>
<path d="M2013 2068 c-4 -7 -1 -8 7 -3 10 6 12 3 7 -11 -7 -18 -6 -18 6 -2 8
10 16 17 18 15 2 -1 3 0 1 2 -6 10 -32 9 -39 -1z"/>
<path d="M1960 2050 c8 -5 20 -10 25 -10 6 0 3 5 -5 10 -8 5 -19 10 -25 10 -5
0 -3 -5 5 -10z"/>
<path d="M1940 2030 c0 -6 4 -9 9 -5 5 3 12 -2 14 -10 4 -12 5 -12 3 1 -1 19
-26 32 -26 14z"/>
<path d="M1990 2020 c0 -5 7 -7 15 -4 8 4 15 8 15 10 0 2 -7 4 -15 4 -8 0 -15
-4 -15 -10z"/>
<path d="M1795 2010 c3 -5 8 -10 11 -10 2 0 4 5 4 10 0 6 -5 10 -11 10 -5 0
-7 -4 -4 -10z"/>
<path d="M2080 2010 c-9 -6 -10 -10 -3 -10 6 0 15 5 18 10 8 12 4 12 -15 0z"/>
<path d="M1680 1999 c0 -6 5 -7 10 -4 9 6 14 -8 11 -27 0 -5 3 -8 8 -8 5 0 18
-3 28 -6 16 -6 16 -5 -2 10 -13 11 -15 14 -4 11 10 -4 16 0 16 10 0 8 -3 16
-6 16 -35 7 -61 6 -61 -2z"/>
<path d="M1975 1992 c-10 -11 -4 -22 18 -32 20 -10 20 -10 5 3 -19 15 -25 33
-9 22 5 -3 12 -2 15 3 5 9 -20 12 -29 4z"/>
<path d="M2020 1996 c0 -2 9 -6 20 -9 11 -3 18 -1 14 4 -5 9 -34 13 -34 5z"/>
<path d="M1913 1954 c0 -28 14 -27 33 2 12 18 11 20 -10 22 -19 1 -23 -3 -23
-24z m27 7 c0 -6 -4 -12 -8 -15 -5 -3 -9 1 -9 9 0 8 4 15 9 15 4 0 8 -4 8 -9z"/>
<path d="M2073 1955 c0 -8 4 -12 9 -9 5 3 6 10 3 15 -9 13 -12 11 -12 -6z"/>
<path d="M1957 1947 c-3 -8 -2 -20 3 -26 5 -9 8 -4 8 13 0 29 -3 32 -11 13z"/>
<path d="M2030 1935 c0 -5 5 -17 10 -25 5 -8 10 -10 10 -5 0 6 -5 17 -10 25
-5 8 -10 11 -10 5z"/>
<path d="M2080 1930 c-9 -6 -10 -10 -3 -10 6 0 15 5 18 10 8 12 4 12 -15 0z"/>
<path d="M2113 1915 c0 -8 4 -12 9 -9 5 3 6 10 3 15 -9 13 -12 11 -12 -6z"/>
<path d="M1723 1913 c-15 -5 -18 -33 -4 -33 5 0 11 9 14 20 3 11 4 20 4 19 -1
0 -8 -3 -14 -6z"/>
<path d="M1991 1863 c-10 -24 -9 -26 2 -11 8 10 17 15 21 11 4 -4 4 0 0 10 -8
22 -9 22 -23 -10z"/>
<path d="M1710 1866 c0 -2 7 -7 16 -10 8 -3 12 -2 9 4 -6 10 -25 14 -25 6z"/>
<path d="M2033 1855 c0 -8 4 -12 9 -9 5 3 6 10 3 15 -9 13 -12 11 -12 -6z"/>
<path d="M1656 1839 c-15 -22 -13 -39 5 -39 6 0 8 4 4 9 -3 5 2 16 10 25 8 8
11 17 6 21 -5 3 -17 -4 -25 -16z"/>
<path d="M1950 1830 c0 -5 5 -10 10 -10 6 0 10 5 10 10 0 6 -4 10 -10 10 -5 0
-10 -4 -10 -10z"/>
<path d="M1996 1825 c-11 -8 -17 -17 -14 -20 2 -3 13 4 23 15 21 23 18 25 -9
5z"/>
<path d="M2095 1830 c3 -5 8 -10 11 -10 2 0 4 5 4 10 0 6 -5 10 -11 10 -5 0
-7 -4 -4 -10z"/>
<path d="M1910 1790 c12 -16 26 -30 31 -30 5 0 0 9 -11 20 -11 11 -20 25 -20
30 0 6 -5 10 -11 10 -6 0 -1 -13 11 -30z"/>
<path d="M1930 1813 c5 -2 8 -9 5 -13 -3 -5 3 -13 13 -19 14 -7 19 -6 19 4 0
7 -7 11 -14 8 -8 -3 -13 0 -11 7 2 7 -3 14 -10 16 -7 1 -8 0 -2 -3z"/>
<path d="M2035 1780 c10 -11 20 -20 23 -20 3 0 -3 9 -13 20 -10 11 -20 20 -23
20 -3 0 3 -9 13 -20z"/>
<path d="M1981 1783 c-1 -6 4 -15 9 -18 6 -4 8 -11 5 -16 -4 -5 -2 -9 4 -9 5
0 9 9 8 19 0 11 -4 18 -8 15 -4 -2 -10 2 -12 8 -4 9 -6 10 -6 1z"/>
<path d="M2075 1779 c-4 -6 -5 -12 -2 -15 2 -3 7 2 10 11 7 17 1 20 -8 4z"/>
<path d="M1640 1745 c-8 -9 -8 -15 -2 -15 12 0 26 19 19 26 -2 2 -10 -2 -17
-11z"/>
<path d="M2090 1750 c0 -5 5 -10 11 -10 5 0 7 5 4 10 -3 6 -8 10 -11 10 -2 0
-4 -4 -4 -10z"/>
<path d="M1951 1738 c-1 -20 14 -24 25 -6 4 6 3 8 -4 4 -5 -3 -13 0 -15 6 -3
8 -6 6 -6 -4z"/>
<path d="M1900 1712 c0 -5 7 -9 15 -9 8 0 15 4 15 9 0 4 -7 8 -15 8 -8 0 -15
-4 -15 -8z"/>
<path d="M1940 1700 c0 -5 0 -13 1 -17 0 -4 -8 -11 -18 -15 -17 -7 -17 -8 1
-5 16 2 36 47 21 47 -3 0 -5 -4 -5 -10z"/>
<path d="M1975 1689 c-6 -8 -4 -10 5 -4 10 6 12 4 6 -11 -6 -15 -5 -17 5 -6 9
9 10 15 2 23 -8 8 -13 7 -18 -2z"/>
<path d="M1861 1671 c-9 -6 -10 -11 -2 -15 6 -4 11 -2 11 4 0 6 4 9 10 5 5 -3
8 -11 6 -18 -1 -7 -1 -9 1 -4 3 4 9 4 15 1 5 -3 4 3 -4 15 -14 23 -17 24 -37
12z"/>
<path d="M1954 1659 c-3 -6 -2 -15 3 -20 5 -5 9 -1 9 11 0 23 -2 24 -12 9z"/>
<path d="M2076 1652 c-3 -5 1 -9 9 -9 8 0 12 4 9 9 -3 4 -7 8 -9 8 -2 0 -6 -4
-9 -8z"/>
<path d="M1910 1629 c-12 -8 -10 -9 9 -4 17 5 22 4 16 -5 -5 -9 -4 -11 4 -6 6
4 9 12 6 17 -8 12 -16 11 -35 -2z"/>
<path d="M1988 1633 c7 -3 16 -2 19 1 4 3 -2 6 -13 5 -11 0 -14 -3 -6 -6z"/>
<path d="M2031 1623 c7 -12 15 -20 18 -17 3 2 -3 12 -13 22 -17 16 -18 16 -5
-5z"/>
<path d="M1979 1603 c-12 -16 -12 -17 2 -6 9 7 20 9 24 5 5 -4 5 -1 1 6 -9 16
-11 15 -27 -5z"/>
<path d="M1933 1595 c4 -5 -3 -15 -15 -22 -13 -7 -18 -12 -12 -13 5 0 18 6 29
13 15 12 16 15 4 22 -8 5 -10 4 -6 0z"/>
<path d="M1957 1567 c-3 -7 3 -13 14 -13 13 0 15 3 7 13 -6 7 -12 13 -13 13
-2 0 -5 -6 -8 -13z"/>
<path d="M1916 1537 c3 -10 9 -15 12 -12 3 3 0 11 -7 18 -10 9 -11 8 -5 -6z"/>
<path d="M1960 1535 c0 -2 6 -8 13 -14 10 -8 14 -7 14 2 0 8 -6 14 -14 14 -7
0 -13 -1 -13 -2z"/>
<path d="M645 1110 c-4 -6 -11 -7 -17 -4 -7 4 -8 2 -4 -4 4 -6 14 -8 23 -5 11
5 14 3 9 -6 -5 -7 -16 -11 -26 -8 -9 2 -28 -2 -41 -9 -13 -7 -18 -13 -11 -14
7 0 11 -4 7 -10 -3 -5 -13 -7 -23 -4 -9 3 -6 -1 7 -9 15 -9 20 -17 13 -21 -6
-4 -9 -14 -6 -24 5 -15 5 -15 -6 1 -6 9 -8 22 -5 27 3 6 1 10 -4 10 -6 0 -11
-7 -11 -15 0 -8 -5 -15 -11 -15 -6 0 -8 7 -4 18 4 12 3 14 -5 6 -13 -13 -22
-56 -9 -49 5 4 9 1 9 -6 0 -6 -8 -9 -19 -6 -13 3 -18 1 -14 -9 2 -7 10 -11 17
-8 7 3 13 -2 13 -11 0 -9 -6 -14 -13 -11 -8 3 -11 0 -8 -8 3 -7 -3 -19 -12
-27 -13 -11 -18 -11 -21 -1 -3 6 -10 12 -15 12 -6 0 -8 -3 -5 -7 4 -3 1 -13
-6 -21 -10 -13 -9 -14 3 -7 26 16 49 13 47 -7 -1 -10 -6 -18 -12 -18 -5 0 -16
-9 -22 -19 -10 -16 -9 -21 5 -27 9 -4 22 -6 28 -5 7 1 11 -7 10 -16 0 -11 5
-17 15 -15 21 3 20 -40 -1 -45 -12 -4 -12 -3 -1 5 9 7 10 12 2 16 -10 7 -16
-6 -12 -28 1 -5 -5 -6 -14 -2 -9 3 -19 6 -22 6 -2 0 2 7 11 15 18 18 11 46
-10 38 -9 -3 -14 0 -12 8 2 7 -6 14 -17 16 -15 2 -16 1 -5 -5 19 -9 26 -43 8
-38 -7 1 -9 1 -5 -2 4 -2 2 -11 -4 -19 -7 -8 -8 -13 -3 -12 31 6 43 -22 20
-50 -8 -11 -8 -15 2 -18 6 -3 10 -9 7 -14 -4 -5 2 -6 12 -2 16 6 16 5 4 -11
-11 -13 -11 -20 -3 -28 7 -7 12 -20 12 -31 0 -10 5 -15 10 -12 6 4 8 11 5 16
-16 24 7 4 37 -33 18 -23 27 -39 21 -35 -7 5 -13 4 -13 -2 0 -6 6 -11 13 -12
6 0 23 -2 37 -4 33 -3 59 9 36 18 -9 4 -16 2 -16 -4 0 -6 -7 -6 -20 1 -21 11
-21 11 2 35 12 12 28 20 36 17 12 -4 12 -2 1 16 -8 13 -16 17 -20 10 -4 -7 -9
-6 -13 3 -3 8 -3 4 0 -8 5 -23 -9 -32 -21 -13 -4 7 -12 7 -25 0 -13 -7 -21 -7
-26 2 -4 7 -3 8 4 4 7 -4 10 1 7 14 -3 14 0 18 8 13 7 -4 5 1 -3 11 -13 16
-12 20 5 32 13 10 15 14 5 14 -9 0 -6 6 8 16 23 16 29 39 13 49 -6 3 -8 -4 -6
-15 2 -12 -3 -24 -14 -29 -14 -8 -17 -5 -16 15 0 35 29 50 47 25 14 -19 14
-19 28 2 12 20 12 21 -3 9 -12 -10 -17 -10 -23 -1 -4 7 -3 9 4 5 6 -3 14 -1
18 5 5 8 3 9 -6 4 -9 -5 -11 -4 -6 4 4 6 13 8 19 4 7 -4 6 0 -2 10 -9 12 -10
17 -2 17 7 0 9 5 5 11 -5 8 -9 8 -14 -1 -5 -9 -9 -9 -14 -1 -4 6 -1 11 6 11 9
0 9 3 -2 10 -8 5 -10 10 -4 10 6 0 11 7 11 16 0 15 -1 15 -12 0 -7 -8 -15 -13
-18 -10 -3 3 6 17 21 31 15 13 22 22 16 19 -6 -3 -11 1 -11 9 0 8 5 12 10 8 5
-3 4 4 -2 16 -7 11 -8 21 -4 21 4 0 -1 6 -11 13 -16 12 -16 14 -2 14 9 0 16
-3 17 -6 6 -47 10 -53 29 -41 12 8 11 10 -4 10 -16 0 -17 3 -8 12 10 10 15 10
20 1 5 -8 12 -8 25 2 11 7 14 16 8 19 -5 4 -12 2 -16 -3 -3 -6 -13 -7 -21 -4
-13 5 -13 7 -2 14 10 7 10 9 -1 9 -11 0 -10 4 5 16 10 8 14 13 8 10 -6 -3 -11
1 -11 9 0 13 3 13 16 2 9 -8 23 -17 31 -21 8 -4 7 -1 -3 7 -12 10 -14 17 -8
22 6 3 11 1 11 -6 0 -8 5 -7 17 2 9 8 14 10 11 4 -3 -5 0 -16 8 -23 10 -10 14
-10 14 -1 0 7 3 10 6 6 3 -3 3 -11 -1 -17 -5 -8 -11 -8 -21 1 -17 14 -19 -2
-2 -19 9 -9 9 -15 -1 -24 -10 -11 -11 -9 -5 7 7 18 6 18 -9 6 -9 -7 -14 -17
-11 -22 3 -5 -3 -6 -13 -3 -13 4 -15 3 -5 -4 8 -5 13 -12 13 -16 -1 -3 -1 -7
0 -8 7 -23 3 -45 -8 -41 -16 6 -17 20 0 26 9 4 9 6 0 6 -20 2 -27 -21 -10 -34
9 -7 13 -16 9 -20 -4 -4 3 -3 14 3 12 6 24 8 28 5 3 -3 6 -1 6 5 0 5 -6 13
-12 15 -10 4 -9 8 2 16 12 8 12 11 1 11 -11 0 -11 3 0 17 8 9 13 18 11 20 -1
2 5 17 13 33 15 30 8 68 -12 63 -4 -2 -8 4 -8 11 0 16 -12 30 -26 32 -5 1 -13
2 -18 3 -10 1 -9 27 2 37 8 8 -11 34 -24 34 -4 0 -11 -5 -14 -10z m28 -23
c-14 -22 -11 -37 8 -47 10 -6 19 -8 19 -5 0 4 5 3 10 0 8 -5 7 -11 -1 -21 -6
-8 -14 -12 -17 -9 -3 3 -11 0 -18 -6 -8 -7 -14 -7 -19 1 -10 16 -24 12 -24 -7
-1 -43 -5 -51 -23 -50 -10 1 -19 4 -19 7 -5 20 -4 62 2 65 3 3 5 16 4 29 -2
14 3 27 11 30 9 3 12 1 9 -4 -9 -15 8 -12 33 6 12 8 19 20 16 26 -4 7 -2 8 5
4 6 -4 8 -13 4 -19z m-118 -95 c-2 -3 3 -11 11 -19 8 -8 12 -19 9 -24 -3 -4 1
-19 9 -31 19 -31 15 -84 -6 -80 -19 3 -18 -19 1 -42 7 -9 10 -16 6 -16 -5 0 0
-9 9 -19 18 -20 10 -33 -22 -37 -36 -6 -51 -46 -29 -81 4 -6 3 -14 -3 -18 -6
-3 -8 -17 -6 -30 6 -32 -2 -37 -30 -18 -19 12 -22 19 -14 34 8 14 6 20 -10 29
-11 6 -18 15 -15 21 4 5 11 7 16 4 13 -9 11 9 -3 23 -9 9 -9 12 0 12 7 0 12
-5 12 -11 0 -6 13 -1 30 11 21 15 29 27 26 43 -3 12 -5 26 -5 31 -1 5 -8 3
-16 -4 -10 -9 -15 -9 -15 -1 0 10 14 15 34 12 5 -1 6 5 3 12 -3 8 0 21 6 28
10 11 9 11 -5 0 -21 -16 -23 -3 -3 23 7 10 18 15 24 12 5 -4 13 -2 16 4 4 6 3
10 -2 9 -20 -3 -34 2 -28 11 3 5 12 7 20 3 8 -3 15 0 15 7 0 6 -4 8 -10 5 -6
-4 -7 1 -3 10 3 10 -7 4 -23 -12 -16 -15 -28 -32 -26 -36 1 -5 -3 -5 -10 -1
-11 6 -11 5 0 -8 10 -13 10 -17 -2 -21 -11 -4 -13 3 -11 31 1 25 7 37 17 37
26 0 50 26 38 40 -8 9 -7 15 2 19 7 3 2 3 -11 0 -16 -4 -21 -3 -16 5 4 7 2 17
-4 24 -7 9 -5 13 9 13 11 0 17 -2 15 -4z m-1 -61 c3 -5 -1 -14 -9 -21 -11 -9
-14 -8 -12 9 1 22 12 28 21 12z m161 -41 c-3 -5 -11 -10 -16 -10 -6 0 -7 5 -4
10 3 6 11 10 16 10 6 0 7 -4 4 -10z m-220 -90 c-5 -8 -11 -8 -17 -2 -6 6 -7
16 -3 22 5 8 11 8 17 2 6 -6 7 -16 3 -22z m35 -1 c0 -5 -4 -9 -10 -9 -5 0 -10
7 -10 16 0 8 5 12 10 9 6 -3 10 -10 10 -16z m-50 -64 c-7 -8 -17 -15 -22 -15
-6 0 -5 7 2 15 7 8 17 15 22 15 6 0 5 -7 -2 -15z m91 -204 c4 7 11 10 16 6 9
-9 -17 -28 -29 -21 -4 3 -8 11 -7 17 0 8 3 7 6 -2 4 -11 7 -11 14 0z"/>
<path d="M638 1059 c-11 -6 -15 -16 -11 -27 6 -14 4 -15 -9 -4 -13 10 -15 9
-14 -10 1 -13 -3 -29 -8 -37 -8 -11 -8 -13 2 -7 7 4 12 2 12 -6 0 -9 3 -9 10
2 6 9 6 18 0 24 -13 13 -13 29 -1 21 5 -3 16 1 24 9 17 18 28 11 20 -12 -4
-14 -3 -14 5 -3 5 7 14 11 20 7 6 -3 14 -1 18 5 4 7 3 9 -3 6 -13 -8 -55 22
-48 34 8 11 5 11 -17 -2z"/>
<path d="M558 798 c8 -10 9 -19 3 -22 -15 -9 -6 -39 12 -42 23 -3 30 11 12 26
-8 7 -13 16 -10 20 3 4 -3 14 -13 21 -15 13 -16 12 -4 -3z m21 -41 c8 -10 7
-14 -2 -14 -8 0 -14 6 -14 14 0 7 1 13 2 13 2 0 8 -6 14 -13z"/>
<path d="M495 662 c-11 -11 -4 -24 10 -19 8 4 17 2 20 -3 4 -6 2 -10 -4 -10
-6 0 -15 -8 -20 -18 -8 -14 -5 -18 12 -19 17 -2 19 0 7 7 -13 8 -12 11 4 23
13 10 16 16 7 21 -6 4 -9 11 -7 15 6 8 -21 11 -29 3z"/>
<path d="M659 967 c0 -1 -2 -10 -4 -20 -3 -13 0 -15 9 -8 9 7 16 7 23 0 8 -8
13 -7 18 2 5 8 4 10 -3 5 -7 -4 -12 -3 -12 2 0 8 -28 26 -31 19z"/>
<path d="M475 940 c3 -5 8 -10 11 -10 2 0 4 5 4 10 0 6 -5 10 -11 10 -5 0 -7
-4 -4 -10z"/>
<path d="M750 925 c0 -8 5 -15 10 -15 6 0 10 7 10 15 0 8 -4 15 -10 15 -5 0
-10 -7 -10 -15z"/>
<path d="M780 930 c0 -4 6 -13 14 -19 10 -9 16 -8 26 4 7 8 9 15 4 16 -5 0
-17 2 -26 4 -10 2 -18 0 -18 -5z"/>
<path d="M460 926 c0 -2 7 -9 15 -16 9 -7 15 -8 15 -2 0 5 -7 12 -15 16 -8 3
-15 4 -15 2z"/>
<path d="M645 884 c-11 -8 -21 -19 -21 -24 -1 -6 -3 -11 -4 -12 -9 -10 -4 -60
6 -69 7 -6 10 -17 7 -25 -3 -8 0 -14 7 -14 6 0 9 4 5 10 -3 5 7 15 22 23 27
14 53 13 53 -2 0 -7 -15 -11 -52 -12 -11 0 -15 -7 -13 -19 3 -14 -1 -17 -13
-13 -9 3 -14 3 -11 -1 15 -17 80 -14 102 5 12 10 16 18 10 19 -7 0 -13 6 -13
13 0 16 -34 50 -42 42 -3 -3 -13 6 -22 20 -13 20 -15 30 -6 40 18 22 7 35 -15
19z m10 -14 c-3 -5 -12 -10 -18 -10 -7 0 -6 4 3 10 19 12 23 12 15 0z m-10
-60 c-8 -9 -12 -20 -9 -23 4 -4 12 1 19 10 8 11 14 12 19 5 3 -6 -2 -16 -13
-21 -23 -13 -38 3 -35 37 3 35 3 35 19 22 14 -12 14 -15 0 -30z m74 -76 c-5
-6 -19 -9 -31 -6 -21 5 -21 6 -3 12 31 11 46 8 34 -6z"/>
<path d="M633 825 c0 -8 4 -12 9 -9 5 3 6 10 3 15 -9 13 -12 11 -12 -6z"/>
<path d="M445 834 c-9 -14 -14 -28 -11 -32 3 -3 6 -1 6 4 0 6 9 20 20 32 12
12 17 22 12 22 -6 0 -17 -12 -27 -26z"/>
<path d="M618 685 c-6 -13 -14 -22 -18 -20 -4 3 -13 -2 -20 -10 -7 -8 -9 -15
-4 -15 5 0 0 -7 -10 -15 -15 -11 -16 -18 -8 -28 9 -10 9 -16 0 -25 -9 -9 -9
-12 0 -12 7 0 12 5 12 12 0 6 7 3 16 -8 8 -10 13 -13 9 -7 -3 7 -1 22 6 34 6
12 7 19 2 16 -5 -3 -15 -1 -23 4 -12 8 -11 9 4 7 10 -2 21 3 24 11 3 8 0 11
-6 7 -6 -3 -14 -1 -18 5 -4 7 -3 9 4 5 6 -3 13 -2 17 4 4 6 12 7 18 3 19 -12
37 -12 37 -2 0 6 5 7 11 3 8 -4 7 -9 -2 -15 -7 -4 -17 -5 -23 -2 -5 4 -7 -1
-3 -11 4 -10 7 -20 7 -22 0 -2 5 -4 10 -4 6 0 9 6 8 13 -2 6 5 11 15 11 21 -2
22 10 1 31 -9 9 -24 13 -34 10 -10 -3 -21 -1 -25 4 -3 6 0 9 7 8 7 -2 10 -2 6
0 -5 3 -8 9 -8 15 0 6 6 5 15 -2 9 -7 19 -10 22 -6 7 7 -15 26 -30 26 -4 0
-12 -11 -19 -25z m-28 -97 c0 -6 -6 -5 -15 2 -8 7 -15 14 -15 16 0 2 7 1 15
-2 8 -4 15 -11 15 -16z"/>
<path d="M441 684 c0 -11 3 -14 6 -6 3 7 2 16 -1 19 -3 4 -6 -2 -5 -13z"/>
<path d="M550 691 c0 -6 4 -12 8 -15 5 -3 9 1 9 9 0 8 -4 15 -9 15 -4 0 -8 -4
-8 -9z"/>
<path d="M614 616 c-1 -28 2 -34 16 -31 11 2 17 -2 16 -12 0 -9 4 -18 9 -20 6
-2 11 6 11 17 0 11 -8 23 -18 26 -10 3 -16 9 -13 13 2 5 -1 16 -8 25 -10 14
-12 11 -13 -18z"/>
<path d="M510 530 c0 -5 5 -10 10 -10 6 0 10 5 10 10 0 6 -4 10 -10 10 -5 0
-10 -4 -10 -10z"/>
<path d="M650 530 c0 -5 5 -10 10 -10 6 0 10 5 10 10 0 6 -4 10 -10 10 -5 0
-10 -4 -10 -10z"/>
<path d="M630 454 c0 -8 5 -12 10 -9 6 4 8 11 5 16 -9 14 -15 11 -15 -7z"/>
<path d="M600 445 c-11 -14 -11 -19 3 -33 23 -23 40 -4 23 26 -11 21 -14 22
-26 7z"/>
</g>
</svg>
