<svg width="231" height="50" viewBox="0 0 231 50" fill="none" xmlns="http://www.w3.org/2000/svg">
<path d="M0 31.0408C0 27.1205 0 25.1603 0.762954 23.6629C1.43407 22.3458 2.50493 21.2749 3.82207 20.6038C5.31945 19.8408 7.27963 19.8408 11.2 19.8408H39.4449C41.6851 19.8408 42.8052 19.8408 43.6609 20.2768C44.4135 20.6603 45.0254 21.2722 45.4089 22.0249C45.8449 22.8805 45.8449 24.0006 45.8449 26.2408V34.6C45.8449 36.8402 45.8449 37.9603 45.4089 38.816C45.0254 39.5686 44.4135 40.1805 43.6609 40.564C42.8052 41 41.6851 41 39.4449 41H0V31.0408Z" fill="url(#paint0_linear_11_93)"/>
<path d="M12.3434 13.4C12.3434 11.1598 12.3434 10.0397 12.7794 9.18404C13.1629 8.43139 13.7748 7.81947 14.5274 7.43597C15.3831 7 16.5032 7 18.7434 7H58.1883V16.9592C58.1883 20.8796 58.1883 22.8397 57.4253 24.3371C56.7542 25.6543 55.6833 26.7251 54.3662 27.3962C52.8688 28.1592 50.9086 28.1592 46.9883 28.1592H18.7434C16.5032 28.1592 15.3831 28.1592 14.5274 27.7232C13.7748 27.3397 13.1629 26.7278 12.7794 25.9751C12.3434 25.1195 12.3434 23.9994 12.3434 21.7592V13.4Z" fill="url(#paint1_linear_11_93)"/>
<path d="M88.124 38.288C86.228 38.288 84.392 38 82.616 37.424C80.864 36.824 79.484 36.056 78.476 35.12L79.808 32.312C80.768 33.176 81.992 33.884 83.48 34.436C84.992 34.964 86.54 35.228 88.124 35.228C90.212 35.228 91.772 34.88 92.804 34.184C93.836 33.464 94.352 32.516 94.352 31.34C94.352 30.476 94.064 29.78 93.488 29.252C92.936 28.7 92.24 28.28 91.4 27.992C90.584 27.704 89.42 27.38 87.908 27.02C86.012 26.564 84.476 26.108 83.3 25.652C82.148 25.196 81.152 24.5 80.312 23.564C79.496 22.604 79.088 21.32 79.088 19.712C79.088 18.368 79.436 17.156 80.132 16.076C80.852 14.996 81.932 14.132 83.372 13.484C84.812 12.836 86.6 12.512 88.736 12.512C90.224 12.512 91.688 12.704 93.128 13.088C94.568 13.472 95.804 14.024 96.836 14.744L95.648 17.624C94.592 16.952 93.464 16.448 92.264 16.112C91.064 15.752 89.888 15.572 88.736 15.572C86.696 15.572 85.16 15.944 84.128 16.688C83.12 17.432 82.616 18.392 82.616 19.568C82.616 20.432 82.904 21.14 83.48 21.692C84.056 22.22 84.764 22.64 85.604 22.952C86.468 23.24 87.632 23.552 89.096 23.888C90.992 24.344 92.516 24.8 93.668 25.256C94.82 25.712 95.804 26.408 96.62 27.344C97.46 28.28 97.88 29.54 97.88 31.124C97.88 32.444 97.52 33.656 96.8 34.76C96.08 35.84 94.988 36.704 93.524 37.352C92.06 37.976 90.26 38.288 88.124 38.288ZM102.635 18.92H106.091V38H102.635V18.92ZM104.363 15.248C103.691 15.248 103.127 15.032 102.671 14.6C102.239 14.168 102.023 13.64 102.023 13.016C102.023 12.392 102.239 11.864 102.671 11.432C103.127 10.976 103.691 10.748 104.363 10.748C105.035 10.748 105.587 10.964 106.019 11.396C106.475 11.804 106.703 12.32 106.703 12.944C106.703 13.592 106.475 14.144 106.019 14.6C105.587 15.032 105.035 15.248 104.363 15.248ZM136.558 18.74C138.958 18.74 140.854 19.436 142.246 20.828C143.662 22.22 144.37 24.284 144.37 27.02V38H140.914V27.416C140.914 25.568 140.482 24.176 139.618 23.24C138.778 22.304 137.566 21.836 135.982 21.836C134.23 21.836 132.838 22.388 131.806 23.492C130.774 24.572 130.258 26.132 130.258 28.172V38H126.802V27.416C126.802 25.568 126.37 24.176 125.506 23.24C124.666 22.304 123.454 21.836 121.87 21.836C120.118 21.836 118.726 22.388 117.694 23.492C116.662 24.572 116.146 26.132 116.146 28.172V38H112.69V18.92H116.002V21.764C116.698 20.78 117.61 20.036 118.738 19.532C119.866 19.004 121.15 18.74 122.59 18.74C124.078 18.74 125.398 19.04 126.55 19.64C127.702 20.24 128.59 21.116 129.214 22.268C129.934 21.164 130.93 20.3 132.202 19.676C133.498 19.052 134.95 18.74 136.558 18.74ZM160.845 18.74C162.693 18.74 164.349 19.148 165.813 19.964C167.277 20.78 168.417 21.92 169.233 23.384C170.073 24.848 170.493 26.54 170.493 28.46C170.493 30.38 170.073 32.084 169.233 33.572C168.417 35.036 167.277 36.176 165.813 36.992C164.349 37.808 162.693 38.216 160.845 38.216C159.477 38.216 158.217 37.952 157.065 37.424C155.937 36.896 154.977 36.128 154.185 35.12V44.984H150.729V18.92H154.041V21.944C154.809 20.888 155.781 20.096 156.957 19.568C158.133 19.016 159.429 18.74 160.845 18.74ZM160.557 35.192C161.781 35.192 162.873 34.916 163.833 34.364C164.817 33.788 165.585 32.996 166.137 31.988C166.713 30.956 167.001 29.78 167.001 28.46C167.001 27.14 166.713 25.976 166.137 24.968C165.585 23.936 164.817 23.144 163.833 22.592C162.873 22.04 161.781 21.764 160.557 21.764C159.357 21.764 158.265 22.052 157.281 22.628C156.321 23.18 155.553 23.96 154.977 24.968C154.425 25.976 154.149 27.14 154.149 28.46C154.149 29.78 154.425 30.956 154.977 31.988C155.529 32.996 156.297 33.788 157.281 34.364C158.265 34.916 159.357 35.192 160.557 35.192ZM181.064 38.216C179.216 38.216 177.788 37.712 176.78 36.704C175.772 35.672 175.268 34.232 175.268 32.384V11.288H178.724V32.096C178.724 33.128 178.964 33.92 179.444 34.472C179.948 35.024 180.692 35.3 181.676 35.3C182.276 35.3 182.84 35.18 183.368 34.94L183.548 37.784C182.756 38.072 181.928 38.216 181.064 38.216ZM186.835 18.92H190.291V38H186.835V18.92ZM188.563 15.248C187.891 15.248 187.327 15.032 186.871 14.6C186.439 14.168 186.223 13.64 186.223 13.016C186.223 12.392 186.439 11.864 186.871 11.432C187.327 10.976 187.891 10.748 188.563 10.748C189.235 10.748 189.787 10.964 190.219 11.396C190.675 11.804 190.903 12.32 190.903 12.944C190.903 13.592 190.675 14.144 190.219 14.6C189.787 15.032 189.235 15.248 188.563 15.248ZM203.369 13.916C201.305 13.916 200.273 15.032 200.273 17.264V18.92H205.853V21.764H200.345V38H196.889V17.228C196.889 15.332 197.441 13.832 198.545 12.728C199.649 11.624 201.197 11.072 203.189 11.072C203.957 11.072 204.677 11.168 205.349 11.36C206.021 11.552 206.597 11.828 207.077 12.188L206.033 14.816C205.241 14.216 204.353 13.916 203.369 13.916ZM226.873 18.92V35.408C226.873 38.744 226.093 41.204 224.533 42.788C222.973 44.396 220.633 45.2 217.513 45.2C215.809 45.2 214.177 44.948 212.617 44.444C211.081 43.964 209.821 43.268 208.837 42.356L210.529 39.692C211.369 40.46 212.377 41.06 213.553 41.492C214.753 41.924 216.013 42.14 217.333 42.14C219.421 42.14 220.957 41.612 221.941 40.556C222.925 39.524 223.417 37.928 223.417 35.768V34.364C222.721 35.276 221.821 35.984 220.717 36.488C219.613 36.968 218.413 37.208 217.117 37.208C214.573 37.208 212.569 36.512 211.104 35.12C209.641 33.728 208.909 31.664 208.909 28.928V18.92H212.365V28.532C212.365 30.356 212.809 31.748 213.697 32.708C214.585 33.644 215.857 34.112 217.513 34.112C219.337 34.112 220.777 33.56 221.833 32.456C222.889 31.352 223.417 29.792 223.417 27.776V18.92H226.873Z" fill="#222324"/>
<defs>
<linearGradient id="paint0_linear_11_93" x1="23" y1="41" x2="-1.5" y2="20" gradientUnits="userSpaceOnUse">
<stop stop-color="#D4DFF0"/>
<stop offset="1" stop-color="#D4DFF0" stop-opacity="0"/>
</linearGradient>
<linearGradient id="paint1_linear_11_93" x1="35" y1="7" x2="58" y2="28" gradientUnits="userSpaceOnUse">
<stop stop-color="#D4DFF0"/>
<stop offset="1" stop-color="#D4DFF0" stop-opacity="0"/>
</linearGradient>
</defs>
</svg>
